<?xml version="1.0" encoding="iso-8859-1"?>
<!-- Generator: Adobe Illustrator 19.0.0, SVG Export Plug-In . SVG Version: 6.00 Build 0)  -->
<svg version="1.1" id="Layer_1" xmlns="http://www.w3.org/2000/svg" xmlns:xlink="http://www.w3.org/1999/xlink" x="0px" y="0px"
	 viewBox="0 0 512 512" style="enable-background:new 0 0 512 512;" xml:space="preserve">
<path style="fill:#9BF57D;" d="M256,8.017c0,0,136.818,128.267,136.818,265.086c0,75.562-61.256,136.818-136.818,136.818
	s-136.818-61.256-136.818-136.818C119.182,136.284,256,8.017,256,8.017z"/>
<path style="fill:#8CE16E;" d="M119.182,273.102c0,75.562,61.256,136.818,136.818,136.818V8.017
	C256,8.017,119.182,136.284,119.182,273.102z"/>
<path d="M400.835,273.102c0-32.257-7.395-66.636-21.978-102.183c-11.57-28.202-27.675-57.218-47.867-86.246
	c-34.292-49.295-68.085-81.173-69.507-82.506c-3.084-2.89-7.882-2.89-10.966,0c-1.422,1.333-35.215,33.211-69.507,82.506
	c-20.192,29.027-36.297,58.044-47.867,86.246c-14.584,35.547-21.979,69.926-21.979,102.183c0,77.172,60.67,140.434,136.818,144.61
	v86.271c0,4.427,3.589,8.017,8.017,8.017c4.427,0,8.017-3.589,8.017-8.017v-86.271C340.165,413.537,400.835,350.274,400.835,273.102
	z M264.017,401.647v-22.61l83.163-83.163c3.131-3.131,3.131-8.206,0-11.337s-8.207-3.131-11.337,0l-71.826,71.824v-37.184
	l66.061-66.061c3.131-3.131,3.131-8.206,0-11.337c-3.131-3.131-8.207-3.131-11.337,0l-54.724,54.723V259.32l48.959-48.959
	c3.131-3.131,3.131-8.206,0-11.337c-3.131-3.131-8.207-3.131-11.337,0l-37.622,37.621v-37.184l31.856-31.856
	c3.131-3.131,3.131-8.206,0-11.337c-3.131-3.131-8.207-3.131-11.337,0l-20.52,20.518v-57.606c0-4.427-3.589-8.017-8.017-8.017
	c-4.427,0-8.017,3.589-8.017,8.017v57.607l-20.52-20.52c-3.131-3.131-8.207-3.131-11.337,0c-3.131,3.131-3.131,8.206,0,11.337
	l31.856,31.856v37.184l-37.622-37.622c-3.131-3.131-8.207-3.131-11.337,0c-3.131,3.131-3.131,8.206,0,11.337l48.959,48.96v37.184
	l-54.724-54.724c-3.131-3.131-8.207-3.131-11.337,0c-3.131,3.131-3.131,8.206,0,11.337l66.061,66.062v37.184l-71.826-71.826
	c-3.131-3.131-8.207-3.131-11.337,0c-3.131,3.131-3.131,8.206,0,11.337l83.163,83.164v22.61
	c-67.301-4.154-120.785-60.216-120.785-128.545c0-68.493,36.316-135.143,66.781-178.995c25.395-36.554,51.077-63.798,62.02-74.844
	c10.944,11.046,36.626,38.289,62.02,74.844c55.196,79.449,66.781,141.191,66.781,178.996
	C384.802,341.43,331.317,397.493,264.017,401.647z"/>
<g>
</g>
<g>
</g>
<g>
</g>
<g>
</g>
<g>
</g>
<g>
</g>
<g>
</g>
<g>
</g>
<g>
</g>
<g>
</g>
<g>
</g>
<g>
</g>
<g>
</g>
<g>
</g>
<g>
</g>
</svg>
