<?xml version="1.0" encoding="iso-8859-1"?>
<!-- Generator: Adobe Illustrator 19.0.0, SVG Export Plug-In . SVG Version: 6.00 Build 0)  -->
<svg version="1.1" id="Layer_1" xmlns="http://www.w3.org/2000/svg" xmlns:xlink="http://www.w3.org/1999/xlink" x="0px" y="0px"
	 viewBox="0 0 512 512" style="enable-background:new 0 0 512 512;" xml:space="preserve">
<polygon style="fill:#FFDC64;" points="220.613,114.454 185.227,273.693 256,273.693 238.307,424.086 344.467,229.46 
	264.847,229.46 309.08,114.454 "/>
<path style="fill:#FFC850;" d="M274.914,356.973l11.902-79.343c2.407-16.047-10.021-30.477-26.247-30.477h-39.956l33.175-132.7
	h-33.175l-35.387,159.24H256l-17.693,150.393L274.914,356.973z"/>
<path d="M437.019,74.981C388.668,26.628,324.38,0,256,0c-40.549,0-79.333,9.206-115.277,27.364
	c-27.136,13.708-51.88,32.447-72.63,54.829l4.41-26.46c0.753-4.517-2.299-8.791-6.817-9.544c-4.517-0.748-8.791,2.299-9.544,6.817
	l-8.847,53.08c-0.44,2.642,0.422,5.335,2.317,7.228c1.568,1.568,3.684,2.43,5.864,2.43c0.453,0,0.91-0.038,1.363-0.113l53.08-8.847
	c4.518-0.753,7.571-5.026,6.817-9.544s-5.032-7.569-9.544-6.817L78.66,95.177c19.73-21.705,43.464-39.834,69.542-53.009
	c33.603-16.973,69.872-25.58,107.798-25.58c63.949,0,124.071,24.903,169.291,70.122c45.219,45.22,70.122,105.342,70.122,169.291
	c0,38.695-9.443,77.13-27.307,111.149c-2.13,4.055-0.568,9.069,3.487,11.199c1.231,0.646,2.549,0.952,3.848,0.952
	c2.984,0,5.866-1.615,7.349-4.44C501.899,338.473,512,297.371,512,256C512,187.62,485.372,123.332,437.019,74.981z"/>
<path d="M455.161,396.37l-53.08,8.847c-4.518,0.753-7.571,5.026-6.817,9.544c0.753,4.518,5.029,7.565,9.544,6.817l28.533-4.755
	c-45.389,50.134-109.12,78.589-177.341,78.589c-63.949,0-124.071-24.903-169.291-70.122C41.491,380.071,16.587,319.949,16.587,256
	c0-38.695,9.443-77.13,27.307-111.149c2.13-4.055,0.568-9.069-3.487-11.199c-4.055-2.131-9.07-0.57-11.199,3.487
	C10.101,173.527,0,214.629,0,256c0,68.38,26.628,132.668,74.981,181.019S187.62,512,256,512c72.085,0,139.485-29.705,187.896-82.133
	l-4.4,26.4c-0.753,4.517,2.299,8.791,6.817,9.544c0.461,0.076,0.921,0.114,1.373,0.114c3.981,0,7.494-2.875,8.171-6.931l8.847-53.08
	c0.44-2.642-0.422-5.335-2.317-7.228C460.495,396.792,457.801,395.931,455.161,396.37z"/>
<path d="M315.916,109.758c-1.547-2.253-4.104-3.598-6.836-3.598h-88.467c-3.887,0-7.253,2.699-8.096,6.495l-34.191,153.857
	c-0.842,3.785,0.067,7.691,2.494,10.716s6.042,4.759,9.92,4.759h55.933l-16.604,141.131c-0.464,3.946,1.935,7.667,5.72,8.872
	c0.832,0.265,1.68,0.391,2.516,0.391c2.969,0,5.797-1.602,7.281-4.324l102.591-188.084c2.171-3.98,2.086-8.683-0.229-12.581
	c-2.314-3.898-6.403-6.226-10.936-6.226h-60.091l39.898-103.736C317.802,114.88,317.463,112.011,315.916,109.758z M257.106,226.483
	c-0.981,2.55-0.642,5.42,0.905,7.672c1.547,2.253,4.104,3.598,6.836,3.598h65.649l-78.943,144.729l12.685-107.821
	c0.276-2.352-0.466-4.711-2.039-6.48S258.369,265.4,256,265.4h-60.434l31.701-142.652h69.737L257.106,226.483z"/>
<g>
</g>
<g>
</g>
<g>
</g>
<g>
</g>
<g>
</g>
<g>
</g>
<g>
</g>
<g>
</g>
<g>
</g>
<g>
</g>
<g>
</g>
<g>
</g>
<g>
</g>
<g>
</g>
<g>
</g>
</svg>
